#!OML:ASF H:\Terrain\Patient Classification 1\Animal2\Wednesday\Animal2.ASF
:FULLY-SPECIFIED
:DEGREES
2504
root 9.20629 13.9794 -18.3625 7.61241 -17.2697 0.204702
lowerback 27.2403 -2.46162 0.702192
upperback 13.4826 -3.20533 -0.603559
thorax -0.0773238 -1.63173 -0.215009
lowerneck 0.660321 4.49916 15.1297
upperneck -1.92066 6.04368 -13.0998
head 0.208449 3.03374 -6.40275
rclavicle -4.41302e-014 1.78906e-014
rhumerus -26.1487 18.0417 -74.2202
rradius 61.2036
rwrist 9.58877
rhand -14.4699 26.8593
rfingers 7.12502
rthumb 11.676 -2.79535
lclavicle -4.41302e-014 1.78906e-014
lhumerus -377.852 -27.514 431.158
lradius 85.4102
lwrist -16.541
lhand 7.78234 32.7951
lfingers 7.12502
lthumb 33.02 59.791
rfemur -56.0727 -1.74039 -6.56039
rtibia 70.3984
rfoot -24.2464 -6.47464
rtoes -40.3696
lfemur -26.1087 3.39587 12.448
ltibia 59.4476
lfoot -33.4358 5.4053
ltoes -46.6788
2505
root 9.15913 14.0537 -18.3534 7.64231 -16.9876 0.412855
lowerback 27.0367 -2.36965 0.752911
upperback 13.457 -3.07971 -0.761194
thorax -0.0236065 -1.55748 -0.454409
lowerneck 0.81232 4.34809 15.4292
upperneck -1.80688 5.87118 -13.0715
head 0.199226 2.95047 -6.45054
rclavicle -5.04913e-014 6.87795e-014
rhumerus -26.9993 17.9063 -74.8633
rradius 59.4956
rwrist 10.8191
rhand -12.7208 27.2448
rfingers 7.12502
rthumb 13.3623 -2.30677
lclavicle -5.04913e-014 6.87795e-014
lhumerus -378.189 -28.5182 431.719
lradius 86.3058
lwrist -15.9623
lhand 7.51234 32.5416
lfingers 7.12502
lthumb 32.7632 59.5915
rfemur -55.5962 -1.60379 -6.56192
rtibia 69.9135
rfoot -24.0091 -6.81604
rtoes -40.2108
lfemur -25.7376 2.96479 12.1869
ltibia 58.3351
lfoot -32.8869 5.85901
ltoes -46.7126
2506
root 9.11301 14.1414 -18.3519 7.55223 -16.6084 0.580306
lowerback 27.0591 -2.39431 0.730073
upperback 13.4001 -3.11013 -0.794327
thorax -0.0996246 -1.56955 -0.466739
lowerneck 1.12835 4.20758 15.3738
upperneck -1.72374 5.72942 -13.0127
head 0.146991 2.88931 -6.43365
rclavicle -8.74653e-015 3.33958e-014
rhumerus -27.7171 18.0801 -75.3654
rradius 57.9227
rwrist 12.2664
rhand -9.96205 26.5922
rfingers 7.12502
rthumb 16.0202 -2.76549
lclavicle -8.74653e-015 3.33958e-014
lhumerus -378.902 -29.2478 432.634
lradius 87.18
lwrist -15.7868
lhand 6.75818 32.3368
lfingers 7.12502
lthumb 32.0455 59.5336
rfemur -54.8689 -1.35498 -6.51521
rtibia 69.3385
rfoot -23.6191 -7.39509
rtoes -40.2239
lfemur -25.3107 2.50036 11.9777
ltibia 57.1628
lfoot -32.3394 5.09289
ltoes -45.3144
2507
root 9.06985 14.2228 -18.3523 7.58495 -16.1653 0.750377
lowerback 27.0482 -2.46914 0.684897
upperback 13.292 -3.20531 -0.774204
thorax -0.214728 -1.61629 -0.391296
lowerneck 1.57722 4.18212 15.2064
upperneck -1.77542 5.74966 -13.043
head 0.0570486 2.9139 -6.42747
rclavicle 2.10712e-014 -2.3059e-014
rhumerus -28.1778 18.2327 -75.7659
rradius 56.304
rwrist 13.9479
rhand -7.53051 26.4049
rfingers 7.12502
rthumb 18.3605 -2.74857
lclavicle 2.10712e-014 -2.3059e-014
lhumerus -379.765 -29.6986 433.688
lradius 88.21
lwrist -15.4174
lhand 6.6691 31.6657
lfingers 7.12502
lthumb 31.9607 58.8795
rfemur -54.2791 -1.34873 -6.44478
rtibia 68.7312
rfoot -23.1799 -7.9525
rtoes -40.7505
lfemur -25.0953 2.08349 11.7714
ltibia 55.9791
lfoot -31.3262 5.85553
ltoes -46.6265
2508
root 9.03009 14.306 -18.3451 7.75158 -15.8427 0.85123
lowerback 26.87 -2.39682 0.764009
upperback 13.1905 -3.08995 -0.751313
thorax -0.248456 -1.55309 -0.445184
lowerneck 2.23359 4.05035 15.0584
upperneck -2.07437 5.63978 -12.9191
head -0.162161 2.8763 -6.38797
rclavicle -3.77691e-014 -3.18055e-015
rhumerus -28.8034 18.2147 -76.0773
rradius 54.8431
rwrist 15.4871
rhand -5.89716 27.1739
rfingers 7.12502
rthumb 19.9312 -1.82397
lclavicle -3.77691e-014 -3.18055e-015
lhumerus -380.495 -30.3793 434.909
lradius 89.229
lwrist -15.0206
lhand 7.13936 31.0117
lfingers 7.12502
lthumb 32.4083 58.1349
rfemur -53.7745 -1.24018 -6.35208
rtibia 68.024
rfoot -22.585 -8.56981
rtoes -41.4102
lfemur -24.9022 1.81045 11.5993
ltibia 54.7956
lfoot -29.8342 7.73552
ltoes -49.2618
2509
root 8.98881 14.41 -18.3465 7.89801 -15.5384 1.01598
lowerback 26.6831 -2.26444 0.800479
upperback 13.0958 -2.91045 -0.775221
thorax -0.26949 -1.45831 -0.542491
lowerneck 2.96885 3.792 15.0116
upperneck -2.37429 5.37481 -12.661
head -0.417814 2.75976 -6.327
rclavicle 3.97569e-014 -1.68967e-014
rhumerus -29.7045 18.2077 -76.4523
rradius 53.6828
rwrist 16.7041
rhand -4.3876 27.6622
rfingers 7.12502
rthumb 21.3817 -1.17809
lclavicle 3.97569e-014 -1.68967e-014
lhumerus -380.951 -31.4859 435.846
lradius 90.0962
lwrist -14.7222
lhand 7.30172 30.7203
lfingers 7.12502
lthumb 32.5628 57.8117
rfemur -53.2277 -0.855759 -6.36643
rtibia 67.1989
rfoot -21.7949 -9.04627
rtoes -41.2181
lfemur -24.7392 1.58372 11.339
ltibia 53.6052
lfoot -28.1894 8.05086
ltoes -49.9046
2510
root 8.9497 14.5246 -18.3577 8.00862 -15.0599 1.38969
lowerback 26.434 -2.65398 0.375529
upperback 13.0336 -3.48915 -0.736656
thorax -0.207085 -1.76379 -0.118334
lowerneck 3.68086 4.07349 13.7443
upperneck -2.48945 5.78564 -12.3453
head -0.557613 2.99076 -6.03445
rclavicle -7.15625e-015 3.18055e-015
rhumerus -30.0209 19.8573 -76.733
rradius 52.6918
rwrist 17.651
rhand -2.83962 27.8088
rfingers 7.12502
rthumb 22.8679 -0.855334
lclavicle -7.15625e-015 3.18055e-015
lhumerus -381.826 -31.029 436.765
lradius 91.2109
lwrist -14.3951
lhand 7.30901 31.0973
lfingers 7.12502
lthumb 32.5698 58.1873
rfemur -52.6442 -0.651105 -6.56982
rtibia 66.3049
rfoot -21.0501 -9.428
rtoes -40.8909
lfemur -24.8307 1.19263 10.8705
ltibia 52.4765
lfoot -26.4752 7.63353
ltoes -49.7962
2511
root 8.91643 14.639 -18.3665 8.15534 -14.5676 1.64301
lowerback 26.3699 -2.69543 0.543681
upperback 13.0681 -3.50404 -0.922463
thorax -0.160383 -1.7525 -0.414028
lowerneck 3.36492 4.0082 14.3896
upperneck -2.12059 5.70715 -12.5079
head -0.385088 2.94157 -6.17772
rclavicle -6.16232e-014 2.60408e-014
rhumerus -30.5255 19.4914 -77.2293
rradius 51.7968
rwrist 18.8922
rhand -0.95329 28.0017
rfingers 7.12502
rthumb 24.677 -0.427104
lclavicle -6.16232e-014 2.60408e-014
lhumerus -381.794 -32.1087 437.107
lradius 92.3993
lwrist -13.8813
lhand 7.70208 31.714
lfingers 7.12502
lthumb 32.9437 58.7261
rfemur -51.9982 -0.514313 -6.65572
rtibia 65.3478
rfoot -20.376 -9.54126
rtoes -40.2158
lfemur -25.0043 0.868924 10.5258
ltibia 51.4594
lfoot -24.5703 7.8425
ltoes -50.2423
2512
root 8.88581 14.7533 -18.3748 8.4586 -14.2845 1.52206
lowerback 26.3055 -2.62377 0.817089
upperback 13.0803 -3.3491 -0.896369
thorax -0.127239 -1.6618 -0.583286
lowerneck 3.15786 3.93137 14.9664
upperneck -1.99064 5.60568 -12.7481
head -0.303378 2.88505 -6.34241
rclavicle -5.20816e-014 4.37326e-014
rhumerus -30.8902 19.1236 -77.4266
rradius 50.9577
rwrist 19.9561
rhand 1.60102 28.1334
rfingers 7.12502
rthumb 27.123 0.0621608
lclavicle -5.20816e-014 4.37326e-014
lhumerus -381.658 -33.1185 437.493
lradius 93.3627
lwrist -13.4038
lhand 8.70575 30.7573
lfingers 7.12502
lthumb 33.8978 57.5637
rfemur -51.4797 -0.198731 -6.37182
rtibia 64.3435
rfoot -19.8284 -9.13233
rtoes -38.1622
lfemur -25.1268 0.905334 10.5761
ltibia 50.5613
lfoot -22.8537 7.7828
ltoes -50.4384
2513
root 8.86048 14.8744 -18.3888 8.84638 -14.1266 1.33385
lowerback 26.067 -2.83852 0.800602
upperback 12.9004 -3.61436 -0.671609
thorax -0.206576 -1.80186 -0.267819
lowerneck 4.23255 4.09783 14.2413
upperneck -2.28794 5.91152 -12.8844
head -0.540687 3.07561 -6.29654
rclavicle 7.95139e-015 -8.94531e-015
rhumerus -31.2596 20.315 -77.4298
rradius 50.2657
rwrist 20.6517
rhand 3.8503 28.3263
rfingers 7.12502
rthumb 29.2728 0.609737
lclavicle 7.95139e-015 -8.94531e-015
lhumerus -382.402 -32.7825 438.494
lradius 94.1881
lwrist -13.1552
lhand 8.60532 30.503
lfingers 7.12502
lthumb 33.8024 57.3305
rfemur -51.0792 0.130459 -6.03826
rtibia 63.2668
rfoot -19.4768 -8.4189
rtoes -35.5722
lfemur -25.2901 1.17085 10.6872
ltibia 49.7767
lfoot -21.4335 6.5038
ltoes -49.3561
2514
root 8.83877 15.0059 -18.4051 9.12142 -13.9606 1.42977
lowerback 25.8843 -3.14384 0.483335
upperback 12.7756 -4.05948 -0.452632
thorax -0.228298 -2.04431 0.255284
lowerneck 5.17123 4.40638 13.0763
upperneck -2.57274 6.34404 -12.9299
head -0.754003 3.32997 -6.14839
rclavicle -2.98177e-014 3.97569e-015
rhumerus -31.3856 21.9356 -77.2608
rradius 49.6618
rwrist 21.01
rhand 5.1418 28.5278
rfingers 7.12502
rthumb 30.5052 1.03322
lclavicle -2.98177e-014 3.97569e-015
lhumerus -383.127 -32.0439 439.705
lradius 94.8319
lwrist -12.5702
lhand 8.4471 29.8725
lfingers 7.12502
lthumb 33.652 56.7329
rfemur -50.5966 0.438053 -6.05546
rtibia 62.058
rfoot -18.9186 -8.00061
rtoes -34.4203
lfemur -25.5075 1.46216 10.4708
ltibia 49.0624
lfoot -19.9492 4.72506
ltoes -47.3487
2515
root 8.82087 15.1376 -18.4172 9.28865 -13.7682 1.95332
lowerback 25.7593 -2.92621 0.543536
upperback 12.8317 -3.77868 -0.765392
thorax -0.133635 -1.88764 -0.193858
lowerneck 4.77449 4.08617 14.3735
upperneck -2.21249 5.96655 -13.2578
head -0.584406 3.12526 -6.45027
rclavicle -1.39149e-014 8.54774e-015
rhumerus -31.8276 20.6968 -77.4935
rradius 49.1423
rwrist 21.4948
rhand 6.19558 28.6394
rfingers 7.12502
rthumb 31.5097 1.33638
lclavicle -1.39149e-014 8.54774e-015
lhumerus -382.693 -33.847 439.631
lradius 95.5398
lwrist -11.219
lhand 7.99142 28.7041
lfingers 7.12502
lthumb 33.2189 55.6579
rfemur -50.0438 0.579111 -6.56626
rtibia 60.7516
rfoot -17.8298 -8.07406
rtoes -35.2012
lfemur -25.8309 1.60653 9.72691
ltibia 48.4296
lfoot -18.0714 3.60432
ltoes -46.0515
2516
root 8.8061 15.2678 -18.4301 9.54729 -13.5828 2.48927
lowerback 25.4998 -3.01867 0.166066
upperback 12.7649 -3.9769 -0.888835
thorax -0.0740712 -1.99632 -0.0745067
lowerneck 5.06315 4.09339 14.3634
upperneck -2.00884 6.02311 -13.2415
head -0.565804 3.16225 -6.44779
rclavicle 4.92986e-014 -3.1408e-014
rhumerus -32.1725 21.1678 -77.7018
rradius 48.7156
rwrist 21.1501
rhand 6.99797 28.6471
rfingers 7.12502
rthumb 32.2738 1.49644
lclavicle 4.92986e-014 -3.1408e-014
lhumerus -382.841 -34.0625 439.757
lradius 96.4745
lwrist -10.7257
lhand 8.72987 27.4671
lfingers 7.12502
lthumb 33.9207 54.2685
rfemur -49.5809 0.637822 -7.12509
rtibia 59.4485
rfoot -16.4998 -8.22773
rtoes -36.3187
lfemur -26.275 1.78423 8.9205
ltibia 47.8803
lfoot -15.8553 2.88875
ltoes -46.1415
2517
root 8.79006 15.4 -18.4502 9.91137 -13.465 2.50511
lowerback 25.1357 -3.0476 0.283442
upperback 12.8342 -3.99113 -0.949894
thorax 0.16227 -1.99545 -0.223492
lowerneck 5.43322 4.0394 14.4697
upperneck -2.06702 6 -13.2
head -0.64507 3.15972 -6.46452
rclavicle 1.35174e-014 1.70955e-014
rhumerus -32.3687 21.4548 -77.9756
rradius 48.3631
rwrist 20.2995
rhand 7.64982 28.7367
rfingers 7.12502
rthumb 32.894 1.7142
lclavicle 1.35174e-014 1.70955e-014
lhumerus -382.511 -34.5676 439.593
lradius 97.2679
lwrist -10.4797
lhand 9.43347 26.7307
lfingers 7.12502
lthumb 34.5888 53.3818
rfemur -49.2385 0.91137 -7.13962
rtibia 58.2002
rfoot -15.2834 -8.06345
rtoes -36.2439
lfemur -26.7026 2.32954 8.72547
ltibia 47.414
lfoot -13.8803 1.93135
ltoes -45.7607
